<?xml version="1.0" standalone="no"?>
<!DOCTYPE svg PUBLIC "-//W3C//DTD SVG 20010904//EN"
 "http://www.w3.org/TR/2001/REC-SVG-20010904/DTD/svg10.dtd">
<svg version="1.0" xmlns="http://www.w3.org/2000/svg"
 width="577.000000pt" height="433.000000pt" viewBox="0 0 577.000000 433.000000"
 preserveAspectRatio="xMidYMid meet">
<metadata>
Created by potrace 1.16, written by Peter Selinger 2001-2019
</metadata>
<g transform="translate(0.000000,433.000000) scale(0.100000,-0.100000)"
fill="#000000" stroke="none">
<path d="M0 2165 l0 -2165 2885 0 2885 0 0 2165 0 2165 -2885 0 -2885 0 0
-2165z m1165 1455 c4 -7 602 -10 1761 -10 l1754 0 0 -1445 0 -1445 -1795 0
-1795 0 0 1430 0 1430 -27 1 c-27 2 -27 2 -3 6 13 3 30 14 38 24 14 20 57 26
67 9z"/>
<path d="M1170 2165 l0 -1365 1715 0 1715 0 0 1365 0 1365 -1715 0 -1715 0 0
-1365z m3310 0 l0 -1245 -1595 0 -1595 0 0 1245 0 1245 1595 0 1595 0 0 -1245z"/>
<path d="M1507 3008 c18 -657 18 -1493 0 -1790 l-5 -78 164 0 164 0 -6 436 -7
437 335 -5 335 -4 12 116 c6 64 9 124 5 133 -5 14 -40 16 -341 16 -184 0 -336
1 -338 3 -1 2 0 151 3 332 l5 329 407 -6 408 -7 8 68 c5 37 8 96 9 132 l0 65
-582 3 -582 2 6 -182z"/>
<path d="M2817 3146 c-17 -125 -19 -202 -6 -212 10 -7 73 -7 209 2 107 7 229
13 271 13 l77 1 6 -67 c10 -103 11 -1491 2 -1626 l-8 -117 167 0 167 0 -9 102
c-9 126 -9 1214 2 1501 l7 207 77 -1 c42 0 163 -6 269 -12 107 -7 195 -10 197
-7 2 3 5 61 6 130 l4 125 -716 3 -716 2 -6 -44z"/>
</g>
</svg>
